<svg xmlns="http://www.w3.org/2000/svg" viewBox="0 0 800 800" width="800" height="800">
<defs>
<radialGradient id="bg" cx="50%" cy="40%" r="75%"><stop offset="0" stop-color="#f6f7f8"/><stop offset="1" stop-color="#d9dee1"/></radialGradient>
<filter id="sh" x="-30%" y="-30%" width="160%" height="170%"><feGaussianBlur in="SourceAlpha" stdDeviation="16"/><feOffset dx="8" dy="22"/><feComponentTransfer><feFuncA type="linear" slope=".32"/></feComponentTransfer><feMerge><feMergeNode/><feMergeNode in="SourceGraphic"/></feMerge></filter>
<pattern id="stitch" width="6" height="6" patternUnits="userSpaceOnUse" patternTransform="rotate(38)"><rect width="6" height="6" fill="#000" fill-opacity="0"/><line x1="0" y1="0" x2="0" y2="6" stroke="#fff" stroke-opacity=".13" stroke-width="2.4"/></pattern>
<pattern id="stitch2" width="5" height="5" patternUnits="userSpaceOnUse" patternTransform="rotate(-42)"><line x1="0" y1="0" x2="0" y2="5" stroke="#000" stroke-opacity=".12" stroke-width="2"/></pattern>
<pattern id="mesh" width="9" height="9" patternUnits="userSpaceOnUse"><circle cx="4.5" cy="4.5" r="1.6" fill="#000" fill-opacity=".22"/></pattern>
<linearGradient id="gloss" x1="0" y1="0" x2="0" y2="1"><stop offset="0" stop-color="#fff" stop-opacity=".34"/><stop offset=".45" stop-color="#fff" stop-opacity=".04"/><stop offset="1" stop-color="#000" stop-opacity=".1"/></linearGradient>
<linearGradient id="or" x1="0" y1="0" x2="1" y2="1"><stop offset="0" stop-color="#f3dc8b"/><stop offset=".5" stop-color="#b58a2c"/><stop offset="1" stop-color="#f0d27a"/></linearGradient>
<linearGradient id="argent" x1="0" y1="0" x2="1" y2="1"><stop offset="0" stop-color="#f4f5f6"/><stop offset=".5" stop-color="#8e979c"/><stop offset="1" stop-color="#e6e9ea"/></linearGradient>
</defs>
<rect width="800" height="800" fill="url(#bg)"/>
<g filter="url(#sh)" transform="translate(150 120) scale(1.250)"><path d="M128 40 C120 -6 280 -6 272 40 L262 64 C240 44 160 44 138 64 Z" fill="#8d969b"/><path d="M128 26 C150 44 250 44 272 26 L352 62 Q370 70 378 88 L398 150 L340 172 L330 150 L330 438 Q330 446 322 446 L78 446 Q70 446 70 438 L70 150 L60 172 L2 150 L22 88 Q30 70 48 62 Z" fill="#8d969b"/><path d="M128 26 C150 44 250 44 272 26 L352 62 Q370 70 378 88 L398 150 L340 172 L330 150 L330 438 Q330 446 322 446 L78 446 Q70 446 70 438 L70 150 L60 172 L2 150 L22 88 Q30 70 48 62 Z" fill="url(#gloss)" opacity=".6"/><path d="M138 40 C160 78 240 78 262 40" fill="none" stroke="#000" stroke-opacity=".3" stroke-width="7"/><path d="M140 330 L260 330 L276 392 L124 392 Z" fill="#000" fill-opacity=".14"/><g transform="translate(90 80) scale(.55)"><circle cx="254.4" cy="145.6" r="33.6" fill="#f07a14"/><path d="M51.7 279.1 L150.6 150.6 L209.9 219.8 L254.4 180.2 L348.3 279.1 Z" fill="#fff"/><path d="M150.6 150.6 L122.9 194.1 L150.6 182.2 L174.3 192.1 Z" fill="#f07a14" opacity=".9"/></g></g>
</svg>