<svg xmlns="http://www.w3.org/2000/svg" viewBox="0 0 860 1184" width="860" height="1184"><rect width="860" height="1184" fill="#ffffff"/><rect width="860" height="300" fill="#009ad8"/><g stroke="#fff" stroke-width="3" fill="none"><circle cx="750" cy="110" r="34"/><path d="M695.6 110H804.4M750 55.599999999999994V164.4"/></g><text x="60" y="190" font-family="'Arial Narrow', 'Helvetica Neue', Arial, sans-serif" font-size="56" font-weight="800" fill="#fff" text-anchor="start" letter-spacing="0">CARTES DE VISITE</text><text x="62" y="245" font-family="Helvetica Neue, Arial, sans-serif" font-size="22" font-weight="400" fill="#fff" text-anchor="start" letter-spacing="0">La première impression, au sens propre.</text><g transform="translate(80 340)"><rect width="700" height="460" fill="#f2f4f5"/><g transform="translate(0 10)"><g transform="translate(180 160) rotate(-8 170 100)"><rect width="340" height="205" rx="8" fill="#1d2a4a" stroke="#d0d5d8"/><rect x="28" y="30" width="46" height="46" rx="23" fill="#e4007c"/><rect x="28" y="140" width="170" height="12" fill="#9aa3a8"/><rect x="28" y="162" width="120" height="10" fill="#c3c9cc"/></g><g transform="translate(240 120) rotate(4 170 100)"><rect width="340" height="205" rx="8" fill="#f4f4f2" stroke="#d0d5d8"/><rect x="28" y="30" width="46" height="46" rx="23" fill="#e4007c"/><rect x="28" y="140" width="170" height="12" fill="#9aa3a8"/><rect x="28" y="162" width="120" height="10" fill="#c3c9cc"/></g><g transform="translate(300 190) rotate(-2 170 100)"><rect width="340" height="205" rx="8" fill="#ffe100" stroke="#d0d5d8"/><rect x="28" y="30" width="46" height="46" rx="23" fill="#0b0d0f"/><rect x="28" y="140" width="170" height="12" fill="#9aa3a8"/><rect x="28" y="162" width="120" height="10" fill="#c3c9cc"/></g></g></g><text x="80" y="870" font-family="Helvetica Neue, Arial, sans-serif" font-size="15" font-weight="700" fill="#e4007c" text-anchor="start" letter-spacing="1.5">FORMATS</text><rect x="80" y="885" width="7" height="7" fill="#009ad8"/><text x="98" y="896" font-family="Helvetica Neue, Arial, sans-serif" font-size="17" font-weight="400" fill="#2a3035" text-anchor="start" letter-spacing="0">85 × 55 mm standard</text><rect x="80" y="911" width="7" height="7" fill="#009ad8"/><text x="98" y="922" font-family="Helvetica Neue, Arial, sans-serif" font-size="17" font-weight="400" fill="#2a3035" text-anchor="start" letter-spacing="0">Carrée 55 × 55 mm</text><rect x="80" y="937" width="7" height="7" fill="#009ad8"/><text x="98" y="948" font-family="Helvetica Neue, Arial, sans-serif" font-size="17" font-weight="400" fill="#2a3035" text-anchor="start" letter-spacing="0">Pliée 170 × 55 mm</text><text x="80" y="990" font-family="Helvetica Neue, Arial, sans-serif" font-size="15" font-weight="700" fill="#e4007c" text-anchor="start" letter-spacing="1.5">SUPPORTS</text><rect x="80" y="1005" width="7" height="7" fill="#009ad8"/><text x="98" y="1016" font-family="Helvetica Neue, Arial, sans-serif" font-size="17" font-weight="400" fill="#2a3035" text-anchor="start" letter-spacing="0">350 g couché mat ou brillant</text><rect x="80" y="1031" width="7" height="7" fill="#009ad8"/><text x="98" y="1042" font-family="Helvetica Neue, Arial, sans-serif" font-size="17" font-weight="400" fill="#2a3035" text-anchor="start" letter-spacing="0">Papier recyclé ou texturé</text><rect x="80" y="1057" width="7" height="7" fill="#009ad8"/><text x="98" y="1068" font-family="Helvetica Neue, Arial, sans-serif" font-size="17" font-weight="400" fill="#2a3035" text-anchor="start" letter-spacing="0">PVC blanc ou transparent</text><text x="460" y="870" font-family="Helvetica Neue, Arial, sans-serif" font-size="15" font-weight="700" fill="#e4007c" text-anchor="start" letter-spacing="1.5">FINITIONS</text><rect x="460" y="885" width="7" height="7" fill="#009ad8"/><text x="478" y="896" font-family="Helvetica Neue, Arial, sans-serif" font-size="17" font-weight="400" fill="#2a3035" text-anchor="start" letter-spacing="0">Pelliculage soft touch</text><rect x="460" y="911" width="7" height="7" fill="#009ad8"/><text x="478" y="922" font-family="Helvetica Neue, Arial, sans-serif" font-size="17" font-weight="400" fill="#2a3035" text-anchor="start" letter-spacing="0">Vernis sélectif</text><rect x="460" y="937" width="7" height="7" fill="#009ad8"/><text x="478" y="948" font-family="Helvetica Neue, Arial, sans-serif" font-size="17" font-weight="400" fill="#2a3035" text-anchor="start" letter-spacing="0">Dorure à chaud, coins ronds</text><text x="40" y="1150" text-anchor="start" font-family="Helvetica Neue, Arial, sans-serif" font-size="15" fill="#6b7479">4  ·  KORVEL  ·  Catalogue print</text></svg>