<svg xmlns="http://www.w3.org/2000/svg" viewBox="0 0 860 1184" width="860" height="1184"><rect width="860" height="1184" fill="#ffffff"/><rect width="860" height="300" fill="#009ad8"/><g stroke="#fff" stroke-width="3" fill="none"><circle cx="750" cy="110" r="34"/><path d="M695.6 110H804.4M750 55.599999999999994V164.4"/></g><text x="60" y="190" font-family="'Arial Narrow', 'Helvetica Neue', Arial, sans-serif" font-size="70" font-weight="800" fill="#fff" text-anchor="start" letter-spacing="0">BROCHURES</text><text x="62" y="245" font-family="Helvetica Neue, Arial, sans-serif" font-size="22" font-weight="400" fill="#fff" text-anchor="start" letter-spacing="0">Catalogues, magazines et livrets qui se gardent.</text><g transform="translate(80 340)"><rect width="700" height="460" fill="#f2f4f5"/><g transform="translate(0 10)"><g transform="translate(170 60)"><rect x="18" y="14" width="320" height="400" fill="#c3c9cc"/><rect width="320" height="400" fill="#009ad8"/><rect x="30" y="40" width="200" height="30" fill="#fff"/><rect x="30" y="84" width="140" height="14" fill="#fff" fill-opacity=".7"/><rect x="30" y="140" width="260" height="200" fill="#fff" fill-opacity=".18"/><path d="M0 0 V400" stroke="#006a96" stroke-width="10"/></g><g transform="translate(400 150) rotate(8)"><rect width="200" height="260" fill="#fff" stroke="#d0d5d8"/><rect x="20" y="20" width="160" height="100" fill="#e4007c"/><rect x="20" y="140" width="150" height="9" fill="#9aa3a8"/><rect x="20" y="160" width="130" height="9" fill="#9aa3a8"/></g></g></g><text x="80" y="870" font-family="Helvetica Neue, Arial, sans-serif" font-size="15" font-weight="700" fill="#e4007c" text-anchor="start" letter-spacing="1.5">FORMATS</text><rect x="80" y="885" width="7" height="7" fill="#009ad8"/><text x="98" y="896" font-family="Helvetica Neue, Arial, sans-serif" font-size="17" font-weight="400" fill="#2a3035" text-anchor="start" letter-spacing="0">A4, A5, carré 210 mm</text><rect x="80" y="911" width="7" height="7" fill="#009ad8"/><text x="98" y="922" font-family="Helvetica Neue, Arial, sans-serif" font-size="17" font-weight="400" fill="#2a3035" text-anchor="start" letter-spacing="0">8 à 200 pages</text><text x="80" y="964" font-family="Helvetica Neue, Arial, sans-serif" font-size="15" font-weight="700" fill="#e4007c" text-anchor="start" letter-spacing="1.5">RELIURES</text><rect x="80" y="979" width="7" height="7" fill="#009ad8"/><text x="98" y="990" font-family="Helvetica Neue, Arial, sans-serif" font-size="17" font-weight="400" fill="#2a3035" text-anchor="start" letter-spacing="0">Piqûre à cheval</text><rect x="80" y="1005" width="7" height="7" fill="#009ad8"/><text x="98" y="1016" font-family="Helvetica Neue, Arial, sans-serif" font-size="17" font-weight="400" fill="#2a3035" text-anchor="start" letter-spacing="0">Dos carré collé</text><rect x="80" y="1031" width="7" height="7" fill="#009ad8"/><text x="98" y="1042" font-family="Helvetica Neue, Arial, sans-serif" font-size="17" font-weight="400" fill="#2a3035" text-anchor="start" letter-spacing="0">Spirale métal</text><text x="460" y="870" font-family="Helvetica Neue, Arial, sans-serif" font-size="15" font-weight="700" fill="#e4007c" text-anchor="start" letter-spacing="1.5">FINITIONS</text><rect x="460" y="885" width="7" height="7" fill="#009ad8"/><text x="478" y="896" font-family="Helvetica Neue, Arial, sans-serif" font-size="17" font-weight="400" fill="#2a3035" text-anchor="start" letter-spacing="0">Couverture pelliculée</text><rect x="460" y="911" width="7" height="7" fill="#009ad8"/><text x="478" y="922" font-family="Helvetica Neue, Arial, sans-serif" font-size="17" font-weight="400" fill="#2a3035" text-anchor="start" letter-spacing="0">Papier intérieur au choix</text><text x="40" y="1150" text-anchor="start" font-family="Helvetica Neue, Arial, sans-serif" font-size="15" fill="#6b7479">8  ·  KORVEL  ·  Catalogue print</text></svg>