<svg xmlns="http://www.w3.org/2000/svg" viewBox="0 0 860 1184" width="860" height="1184"><rect width="860" height="1184" fill="#ffffff"/><rect width="860" height="300" fill="#0b0d0f"/><g stroke="#fff" stroke-width="3" fill="none"><circle cx="750" cy="110" r="34"/><path d="M695.6 110H804.4M750 55.599999999999994V164.4"/></g><text x="60" y="190" font-family="'Arial Narrow', 'Helvetica Neue', Arial, sans-serif" font-size="56" font-weight="800" fill="#fff" text-anchor="start" letter-spacing="0">COVERING VÉHICULE</text><text x="62" y="245" font-family="Helvetica Neue, Arial, sans-serif" font-size="22" font-weight="400" fill="#d9dde0" text-anchor="start" letter-spacing="0">Votre flotte devient un panneau publicitaire qui roule.</text><g transform="translate(80 340)"><rect width="700" height="460" fill="#f2f4f5"/><g transform="translate(0 10)"><g transform="translate(40 110)"><path d="M0 250 V90 Q0 60 30 60 H400 L500 120 Q600 140 620 180 V250 Z" fill="#f4f4f2" stroke="#c3c9cc" stroke-width="4"/><path d="M400 60 L480 120 H400 Z" fill="#9fc6da"/><path d="M0 170 Q200 110 420 190 L620 190 V250 H0 Z" fill="#009ad8"/><path d="M0 210 Q220 160 620 225 V250 H0 Z" fill="#e4007c"/><text x="40" y="140" font-family="'Arial Narrow', 'Helvetica Neue', Arial, sans-serif" font-weight="700" font-size="54" fill="#0b0d0f">VOTRE MARQUE</text><circle cx="130" cy="255" r="48" fill="#0b0d0f"/><circle cx="130" cy="255" r="20" fill="#8e979c"/><circle cx="500" cy="255" r="48" fill="#0b0d0f"/><circle cx="500" cy="255" r="20" fill="#8e979c"/></g></g></g><text x="80" y="870" font-family="Helvetica Neue, Arial, sans-serif" font-size="15" font-weight="700" fill="#e4007c" text-anchor="start" letter-spacing="1.5">VÉHICULES</text><rect x="80" y="885" width="7" height="7" fill="#009ad8"/><text x="98" y="896" font-family="Helvetica Neue, Arial, sans-serif" font-size="17" font-weight="400" fill="#2a3035" text-anchor="start" letter-spacing="0">Voitures, utilitaires</text><rect x="80" y="911" width="7" height="7" fill="#009ad8"/><text x="98" y="922" font-family="Helvetica Neue, Arial, sans-serif" font-size="17" font-weight="400" fill="#2a3035" text-anchor="start" letter-spacing="0">Camions, remorques</text><text x="80" y="964" font-family="Helvetica Neue, Arial, sans-serif" font-size="15" font-weight="700" fill="#e4007c" text-anchor="start" letter-spacing="1.5">PRESTATIONS</text><rect x="80" y="979" width="7" height="7" fill="#009ad8"/><text x="98" y="990" font-family="Helvetica Neue, Arial, sans-serif" font-size="17" font-weight="400" fill="#2a3035" text-anchor="start" letter-spacing="0">Marquage partiel ou total</text><rect x="80" y="1005" width="7" height="7" fill="#009ad8"/><text x="98" y="1016" font-family="Helvetica Neue, Arial, sans-serif" font-size="17" font-weight="400" fill="#2a3035" text-anchor="start" letter-spacing="0">Adhésifs microperforés vitres</text><rect x="80" y="1031" width="7" height="7" fill="#009ad8"/><text x="98" y="1042" font-family="Helvetica Neue, Arial, sans-serif" font-size="17" font-weight="400" fill="#2a3035" text-anchor="start" letter-spacing="0">Dépose d'anciens marquages</text><text x="460" y="870" font-family="Helvetica Neue, Arial, sans-serif" font-size="15" font-weight="700" fill="#e4007c" text-anchor="start" letter-spacing="1.5">MATIÈRE</text><rect x="460" y="885" width="7" height="7" fill="#009ad8"/><text x="478" y="896" font-family="Helvetica Neue, Arial, sans-serif" font-size="17" font-weight="400" fill="#2a3035" text-anchor="start" letter-spacing="0">Vinyle coulé longue durée</text><text x="820" y="1150" text-anchor="end" font-family="Helvetica Neue, Arial, sans-serif" font-size="15" fill="#6b7479">15  ·  KORVEL  ·  Catalogue print</text></svg>